{
  "accessors": [
    {
      "bufferView": 2,
      "componentType": 5126,
      "count": 14473,
      "max": [
        3.7907092571258545,
        3.4030535221099854,
        17.513404846191406
      ],
      "min": [
        -3.199005126953125,
        -4.325408935546875,
        -0.3201637268066406
      ],
      "type": "VEC3"
    },
    {
      "bufferView": 2,
      "byteOffset": 173676,
      "componentType": 5126,
      "count": 14473,
      "max": [
        0.9999934434890747,
        0.9999969005584717,
        0.9996181726455688
      ],
      "min": [
        -0.9999216794967651,
        -0.9999860525131226,
        -0.999052107334137
      ],
      "type": "VEC3"
    },
    {
      "bufferView": 3,
      "componentType": 5126,
      "count": 14473,
      "max": [
        0.9999207258224487,
        0.9999945759773254,
        0.9999776482582092,
        1.0
      ],
      "min": [
        -0.9998562335968018,
        -0.9999392032623291,
        -0.9699685573577881,
        -1.0
      ],
      "type": "VEC4"
    },
    {
      "bufferView": 1,
      "componentType": 5126,
      "count": 14473,
      "max": [
        0.9999999403953552,
        0.9617725610733032
      ],
      "min": [
        0.0,
        0.0
      ],
      "type": "VEC2"
    },
    {
      "bufferView": 0,
      "componentType": 5125,
      "count": 78000,
      "type": "SCALAR"
    },
    {
      "bufferView": 2,
      "byteOffset": 347352,
      "componentType": 5126,
      "count": 6000,
      "max": [
        4.950894355773926,
        5.244711399078369,
        19.357128143310547
      ],
      "min": [
        -4.2285590171813965,
        -5.692377090454102,
        6.1949849128723145
      ],
      "type": "VEC3"
    },
    {
      "bufferView": 2,
      "byteOffset": 419352,
      "componentType": 5126,
      "count": 6000,
      "max": [
        0.999976396560669,
        0.9998022317886353,
        0.9257252812385559
      ],
      "min": [
        -0.9996247291564941,
        -0.9993851184844971,
        -0.9995901584625244
      ],
      "type": "VEC3"
    },
    {
      "bufferView": 1,
      "byteOffset": 115784,
      "componentType": 5126,
      "count": 6000,
      "max": [
        0.8446503281593323,
        1.0
      ],
      "min": [
        0.2282336950302124,
        0.0
      ],
      "type": "VEC2"
    },
    {
      "bufferView": 0,
      "byteOffset": 312000,
      "componentType": 5125,
      "count": 18000,
      "type": "SCALAR"
    }
  ],
  "asset": {
    "extras": {
      "author": "SomeKevin (https://sketchfab.com/SomeKevin)",
      "license": "CC-BY-4.0 (http://creativecommons.org/licenses/by/4.0/)",
      "source": "https://sketchfab.com/3d-models/tree-66a8d0ef9b49415a9eaf6af216cb9bce",
      "title": "Tree"
    },
    "generator": "Sketchfab-12.67.0",
    "version": "2.0"
  },
  "bufferViews": [
    {
      "buffer": 0,
      "byteLength": 384000,
      "name": "floatBufferViews",
      "target": 34963
    },
    {
      "buffer": 0,
      "byteLength": 163784,
      "byteOffset": 384000,
      "byteStride": 8,
      "name": "floatBufferViews",
      "target": 34962
    },
    {
      "buffer": 0,
      "byteLength": 491352,
      "byteOffset": 547784,
      "byteStride": 12,
      "name": "floatBufferViews",
      "target": 34962
    },
    {
      "buffer": 0,
      "byteLength": 231568,
      "byteOffset": 1039136,
      "byteStride": 16,
      "name": "floatBufferViews",
      "target": 34962
    }
  ],
  "buffers": [
    {
      "byteLength": 1270704,
      "uri": "scene.bin"
    }
  ],
  "images": [
    {
      "uri": "textures/Material.002_baseColor.png"
    },
    {
      "uri": "textures/Material.002_normal.png"
    },
    {
      "uri": "textures/ascht_baseColor.png"
    },
    {
      "uri": "textures/ascht_metallicRoughness.png"
    }
  ],
  "materials": [
    {
      "doubleSided": true,
      "name": "Material.002",
      "normalTexture": {
        "index": 1
      },
      "pbrMetallicRoughness": {
        "baseColorTexture": {
          "index": 0
        },
        "metallicFactor": 0.0
      }
    },
    {
      "alphaMode": "BLEND",
      "doubleSided": true,
      "name": "ascht",
      "pbrMetallicRoughness": {
        "baseColorTexture": {
          "index": 2
        },
        "metallicFactor": 0.0,
        "metallicRoughnessTexture": {
          "index": 3
        }
      }
    }
  ],
  "meshes": [
    {
      "name": "Plane.008_Material.002_0",
      "primitives": [
        {
          "attributes": {
            "NORMAL": 1,
            "POSITION": 0,
            "TANGENT": 2,
            "TEXCOORD_0": 3
          },
          "indices": 4,
          "material": 0,
          "mode": 4
        }
      ]
    },
    {
      "name": "Plane.008_ascht_0",
      "primitives": [
        {
          "attributes": {
            "NORMAL": 6,
            "POSITION": 5,
            "TEXCOORD_0": 7
          },
          "indices": 8,
          "material": 1,
          "mode": 4
        }
      ]
    }
  ],
  "nodes": [
    {
      "children": [
        1
      ],
      "matrix": [
        1.0,
        0.0,
        0.0,
        0.0,
        0.0,
        2.220446049250313e-16,
        -1.0,
        0.0,
        0.0,
        1.0,
        2.220446049250313e-16,
        0.0,
        0.0,
        0.0,
        0.0,
        1.0
      ],
      "name": "Sketchfab_model"
    },
    {
      "children": [
        2
      ],
      "matrix": [
        0.009999999776482582,
        0.0,
        0.0,
        0.0,
        0.0,
        0.0,
        0.009999999776482582,
        0.0,
        0.0,
        -0.009999999776482582,
        0.0,
        0.0,
        0.0,
        0.0,
        0.0,
        1.0
      ],
      "name": "cef8320460ed40748f21ee6dd058b233.fbx"
    },
    {
      "children": [
        3
      ],
      "name": "RootNode"
    },
    {
      "children": [
        4,
        5
      ],
      "matrix": [
        100.0,
        0.0,
        0.0,
        0.0,
        -0.0,
        -1.629206793918314e-05,
        -99.99999999999868,
        0.0,
        0.0,
        99.99999999999868,
        -1.629206793918314e-05,
        0.0,
        -0.39302757382392883,
        8.266237258911133,
        12.769135475158691,
        1.0
      ],
      "name": "Plane.008"
    },
    {
      "mesh": 0,
      "name": "Plane.008_Material.002_0"
    },
    {
      "mesh": 1,
      "name": "Plane.008_ascht_0"
    }
  ],
  "samplers": [
    {
      "magFilter": 9729,
      "minFilter": 9987,
      "wrapS": 10497,
      "wrapT": 10497
    }
  ],
  "scene": 0,
  "scenes": [
    {
      "name": "Sketchfab_Scene",
      "nodes": [
        0
      ]
    }
  ],
  "textures": [
    {
      "sampler": 0,
      "source": 0
    },
    {
      "sampler": 0,
      "source": 1
    },
    {
      "sampler": 0,
      "source": 2
    },
    {
      "sampler": 0,
      "source": 3
    }
  ]
}
